<svg width="279" height="278" viewBox="0 0 279 278" fill="none" xmlns="http://www.w3.org/2000/svg">
<path d="M199.407 35.0771L79.4067 242.923" stroke="#122443" stroke-width="0.2"/>
<path d="M243.33 79L35.484 199" stroke="#122443" stroke-width="0.2"/>
<path d="M243.33 199L35.484 79" stroke="#122443" stroke-width="0.2"/>
<path d="M199.407 242.923L79.4067 35.0768" stroke="#122443" stroke-width="0.2"/>
<path d="M259 139L19 139" stroke="#122443" stroke-width="0.2"/>
<path d="M49.915 88.152L49.4771 87.253L48.7414 87.6114L48.9472 88.4035L49.915 88.152ZM97.5083 64.9655L97.9462 65.8645L97.9924 65.842L98.036 65.8149L97.5083 64.9655ZM139.407 38.9316L139.959 38.0984L139.424 37.7433L138.879 38.0823L139.407 38.9316ZM181.712 66.9994L181.159 67.8327L181.218 67.8722L181.283 67.9028L181.712 66.9994ZM227 88.4995L227.994 88.6046L228.069 87.9L227.429 87.5961L227 88.4995ZM221.576 139.813L220.582 139.708L220.566 139.857L220.594 140.003L221.576 139.813ZM231.746 192.288L231.944 193.268L232.916 193.071L232.727 192.097L231.746 192.288ZM139.407 210.999L138.755 211.758L139.126 212.077L139.605 211.98L139.407 210.999ZM80.4235 172.762L79.5358 173.222L79.6942 173.528L80.007 173.671L80.4235 172.762ZM63.3388 139.813L62.3709 140.064L62.3992 140.173L62.451 140.273L63.3388 139.813ZM111.5 187L112.152 186.241L112.045 186.149L111.916 186.09L111.5 187ZM50.353 89.051L97.9462 65.8645L97.0703 64.0665L49.4771 87.253L50.353 89.051ZM98.036 65.8149L139.934 39.781L138.879 38.0823L96.9805 64.1162L98.036 65.8149ZM138.854 39.7649L181.159 67.8327L182.264 66.1662L139.959 38.0984L138.854 39.7649ZM181.283 67.9028L226.571 89.4029L227.429 87.5961L182.141 66.0961L181.283 67.9028ZM226.005 88.3944L220.582 139.708L222.571 139.918L227.994 88.6046L226.005 88.3944ZM220.594 140.003L230.764 192.478L232.727 192.097L222.558 139.623L220.594 140.003ZM81.3113 172.302L64.2265 139.353L62.451 140.273L79.5358 173.222L81.3113 172.302ZM64.3066 139.562L50.8829 87.9005L48.9472 88.4035L62.3709 140.064L64.3066 139.562ZM139.605 211.98L231.944 193.268L231.547 191.307L139.208 210.019L139.605 211.98ZM140.059 210.241L112.152 186.241L110.848 187.758L138.755 211.758L140.059 210.241ZM111.916 186.09L80.84 171.853L80.007 173.671L111.083 187.909L111.916 186.09Z" fill="#52C22B"/>
<circle cx="139.5" cy="2.5" r="2.5" fill="#52C22B"/>
<circle cx="139.5" cy="275.5" r="2.5" fill="#FFBE4D"/>
<circle cx="207.75" cy="20.7881" r="2.5" transform="rotate(30 207.75 20.7881)" fill="#FFBE4D"/>
<circle cx="71.25" cy="257.213" r="2.5" transform="rotate(30 71.25 257.213)" fill="#FF5A52"/>
<circle cx="258" cy="71" r="7" transform="rotate(90 258 71)" fill="#52C22B"/>
<circle cx="258" cy="71" r="2" transform="rotate(90 258 71)" fill="white"/>
<circle cx="21.2876" cy="207.25" r="2.5" transform="rotate(60 21.2876 207.25)" fill="#FFBE4D"/>
<circle cx="276" cy="139" r="2.5" transform="rotate(90 276 139)" fill="#FFBE4D"/>
<circle cx="3" cy="139" r="2.5" transform="rotate(90 3 139)" fill="#FFBE4D"/>
<circle cx="257.712" cy="207.25" r="2.5" transform="rotate(120 257.712 207.25)" fill="#52C22B"/>
<circle cx="21.2876" cy="70.75" r="2.5" transform="rotate(120 21.2876 70.75)" fill="#52C22B"/>
<circle cx="207.75" cy="257.212" r="2.5" transform="rotate(150 207.75 257.212)" fill="#FFBE4D"/>
<circle cx="71.25" cy="20.7871" r="2.5" transform="rotate(150 71.25 20.7871)" fill="#52C22B"/>
<circle cx="138.5" cy="139.5" r="58.25" stroke="#FF5A52" stroke-width="0.5"/>
<circle cx="138.5" cy="139.5" r="84.25" stroke="#52C22B" stroke-width="0.5"/>
<circle opacity="0.2" cx="139.5" cy="139.5" r="23.4" stroke="#122443" stroke-width="0.2"/>
<circle opacity="0.2" cx="139.5" cy="139.5" r="52.4" stroke="#122443" stroke-width="0.2"/>
<circle opacity="0.2" cx="139.5" cy="139.5" r="84.4" stroke="#122443" stroke-width="0.2"/>
<circle opacity="0.2" cx="139.5" cy="139.5" r="119.4" stroke="#122443" stroke-width="0.2"/>
</svg>
