<svg width="14" height="14" viewBox="0 0 14 14" fill="none" xmlns="http://www.w3.org/2000/svg">
<path fill-rule="evenodd" clip-rule="evenodd" d="M13 0C12.4477 0 12 0.447716 12 1V13C12 13.5523 12.4477 14 13 14C13.5523 14 14 13.5523 14 13V1C14 0.447715 13.5523 0 13 0ZM1 2C0.447715 2 0 2.44772 0 3V13C0 13.5523 0.447715 14 1 14C1.55228 14 2 13.5523 2 13V3C2 2.44772 1.55228 2 1 2ZM5 4C4.44772 4 4 4.44772 4 5V13C4 13.5523 4.44772 14 5 14C5.55228 14 6 13.5523 6 13V5C6 4.44772 5.55228 4 5 4ZM8 3C8 2.44772 8.44771 2 9 2C9.55229 2 10 2.44772 10 3V13C10 13.5523 9.55229 14 9 14C8.44771 14 8 13.5523 8 13V3Z" fill="white"/>
</svg>
