<svg width="26" height="26" viewBox="0 0 26 26" fill="none" xmlns="http://www.w3.org/2000/svg">
<path d="M12.9999 17.7992C15.6509 17.7992 17.7999 15.6502 17.7999 12.9992C17.7999 10.3483 15.6509 8.19922 12.9999 8.19922C10.349 8.19922 8.19995 10.3483 8.19995 12.9992C8.19995 15.6502 10.349 17.7992 12.9999 17.7992Z" stroke="#FECC62" stroke-width="1.5" stroke-linecap="round" stroke-linejoin="round"/>
<path d="M17.8 8.19925V14.1992C17.8 15.154 18.1793 16.0697 18.8544 16.7448C19.5296 17.42 20.4452 17.7992 21.4 17.7992C22.3548 17.7992 23.2705 17.42 23.9456 16.7448C24.6207 16.0697 25 15.154 25 14.1992V12.9992C24.9998 10.2909 24.0835 7.66223 22.3999 5.54069C20.7164 3.41916 18.3647 1.92953 15.7272 1.31401C13.0897 0.698499 10.3215 0.993305 7.87283 2.1505C5.42412 3.30769 3.43889 5.2592 2.23992 7.68772C1.04095 10.1162 0.698771 12.8789 1.26901 15.5266C1.83925 18.1742 3.28838 20.5511 5.38077 22.2708C7.47315 23.9904 10.0857 24.9517 12.7937 24.9982C15.5017 25.0448 18.1457 24.1739 20.296 22.5272" stroke="#FECC62" stroke-width="1.5" stroke-linecap="round" stroke-linejoin="round"/>
</svg>
