<svg width="20" height="24" viewBox="0 0 20 24" fill="none" xmlns="http://www.w3.org/2000/svg">
<path fill-rule="evenodd" clip-rule="evenodd" d="M1.42908 8.11095C1.72872 8.11095 1.98227 7.77444 1.72872 7.47275C1.12943 6.76492 0.783688 5.84824 0.783688 4.86193C0.783688 2.59922 2.60461 0.789048 4.85195 0.789048C7.08776 0.789048 8.89716 2.61082 8.89716 4.86193V5.03598C8.89716 5.30287 9.08156 5.43051 9.26595 5.43051C9.50798 5.43051 9.66932 5.25645 9.66932 5.03598C9.68085 5.00117 9.68085 4.94315 9.68085 4.86193C9.68085 2.18149 7.50266 0 4.85195 0C2.16667 0 0 2.18149 0 4.86193C0 5.99908 0.380319 7.06662 1.07181 7.92529C1.18706 8.06453 1.31383 8.11095 1.42908 8.11095ZM15.086 23.4626C19.0505 22.0121 21.148 18.4266 19.3502 13.4486L18.6241 11.4296C17.7136 8.93481 16.2385 7.9601 14.3945 8.6099C13.922 7.9485 13.1383 7.68161 12.2739 8.00651C11.9397 8.12255 11.6285 8.31981 11.3174 8.56349C10.8449 7.87887 10.0381 7.61199 9.16223 7.93689C8.87411 8.04133 8.56294 8.22698 8.28634 8.44745L6.85727 4.50221C6.44237 3.35345 5.41667 2.94733 4.47163 3.29543C3.4805 3.65515 2.9734 4.62985 3.3883 5.77861L7.01861 15.8506C7.04166 15.9086 7.03014 15.955 6.97252 15.9782C6.93794 15.9898 6.88032 15.9782 6.83422 15.9202L4.51773 13.3094C3.89539 12.6132 3.1578 12.4391 2.51241 12.6596C1.61347 12.9845 1.07181 13.8896 1.4406 14.8875C1.5328 15.1195 1.70567 15.4328 1.89007 15.6649L6.00443 20.7009C8.49379 23.7411 11.6401 24.7274 15.086 23.4626ZM2.48936 15.1544L6.60372 20.2019C8.86259 22.9752 11.7784 23.8687 14.844 22.7431C18.4397 21.4203 20.2376 18.1945 18.6011 13.6807L17.898 11.7429C17.1489 9.66584 16.0541 8.81877 14.7518 9.30612L15.2704 10.745C15.3856 11.0583 15.2589 11.2555 15.0745 11.3252C14.8785 11.3948 14.6596 11.3252 14.5443 11.0119L14.0257 9.58461C13.7376 8.77236 13.1498 8.45906 12.4353 8.72594C12.1817 8.81877 11.8706 9.00443 11.6401 9.21329L12.4007 11.3252C12.516 11.6385 12.3777 11.8357 12.1933 11.9053C11.9973 11.975 11.7784 11.9053 11.6746 11.592L10.9255 9.51499C10.6259 8.70273 10.0381 8.40104 9.32358 8.65632C9.07003 8.74915 8.77039 8.93481 8.52837 9.14367L9.5195 11.9169C9.6117 12.149 9.5656 12.3927 9.32358 12.4855C9.09308 12.5667 8.88564 12.4159 8.79344 12.1838L6.11968 4.75749C5.86613 4.07288 5.33599 3.75958 4.71365 3.98005C4.10284 4.21212 3.87234 4.80391 4.11436 5.48852L7.9406 16.071C8.09042 16.4888 7.8945 16.8369 7.53723 16.9645C7.22606 17.0806 6.92642 17.0225 6.64982 16.7092L4.03369 13.8083C3.64184 13.3674 3.2039 13.2049 2.78901 13.3558C2.24734 13.5647 1.99379 14.11 2.17819 14.609C2.25886 14.8411 2.36259 14.9919 2.48936 15.1544Z" fill="url(#paint0_linear)"/>
<defs>
<linearGradient id="paint0_linear" x1="20" y1="0" x2="0" y2="0" gradientUnits="userSpaceOnUse">
<stop stop-color="#00C6FF"/>
<stop offset="1" stop-color="#0072FF"/>
</linearGradient>
</defs>
</svg>
