<svg width="26" height="26" viewBox="0 0 26 26" fill="none" xmlns="http://www.w3.org/2000/svg">
<path d="M24.0527 17.6718C23.2893 19.4776 22.0952 21.0689 20.5749 22.3065C19.0546 23.5441 17.2544 24.3904 15.3315 24.7713C13.4087 25.1522 11.4219 25.0562 9.54474 24.4916C7.66759 23.9271 5.95728 22.9112 4.56334 21.5328C3.1694 20.1543 2.13427 18.4553 1.54845 16.5843C0.962631 14.7133 0.843956 12.7272 1.2028 10.7997C1.56165 8.87224 2.38709 7.06201 3.60696 5.52732C4.82684 3.99263 6.40399 2.7802 8.20055 1.99603" stroke="#4E54C8" stroke-width="2" stroke-linecap="round" stroke-linejoin="round"/>
<path d="M25.0007 13.0029C25.0007 11.4267 24.6904 9.86585 24.0873 8.40959C23.4842 6.95333 22.6003 5.63014 21.486 4.51557C20.3717 3.401 19.0488 2.51687 17.5929 1.91367C16.137 1.31046 14.5765 1 13.0006 1V13.0029H25.0007Z" stroke="#FFBE4D" stroke-width="2" stroke-linecap="round" stroke-linejoin="round"/>
</svg>
