<svg width="16" height="16" viewBox="0 0 16 16" fill="none" xmlns="http://www.w3.org/2000/svg">
<path d="M7.25 7.25V8H8V7.25H7.25ZM7.25 8.75H8V8H7.25V8.75ZM8.75 8.75V8H8V8.75H8.75ZM8.75 7.25H8V8H8.75V7.25ZM8 2H9.5C9.5 1.17157 8.82843 0.5 8 0.5V2ZM8 2V0.5C7.17157 0.5 6.5 1.17157 6.5 2H8ZM8 7.25V2H6.5V7.25H8ZM2 8H7.25V6.5H2V8ZM2 8V6.5C1.17157 6.5 0.5 7.17157 0.5 8H2ZM2 8H0.5C0.5 8.82843 1.17157 9.5 2 9.5V8ZM7.25 8H2V9.5H7.25V8ZM8 14V8.75H6.5V14H8ZM8 14H6.5C6.5 14.8284 7.17157 15.5 8 15.5V14ZM8 14V15.5C8.82843 15.5 9.5 14.8284 9.5 14H8ZM8 8.75V14H9.5V8.75H8ZM14 8H8.75V9.5H14V8ZM14 8V9.5C14.8284 9.5 15.5 8.82843 15.5 8H14ZM14 8H15.5C15.5 7.17157 14.8284 6.5 14 6.5V8ZM8.75 8H14V6.5H8.75V8ZM8 2V7.25H9.5V2H8Z" fill="url(#paint0_linear)"/>
<defs>
<linearGradient id="paint0_linear" x1="14" y1="2" x2="2" y2="2" gradientUnits="userSpaceOnUse">
<stop stop-color="#00C6FF"/>
<stop offset="1" stop-color="#0072FF"/>
</linearGradient>
</defs>
</svg>
