<svg width="31" height="22" viewBox="0 0 31 22" fill="none" xmlns="http://www.w3.org/2000/svg">
<path d="M15.1413 13.8289C16.7036 13.8289 17.9701 12.5623 17.9701 11C17.9701 9.43768 16.7036 8.17116 15.1413 8.17116C13.5789 8.17116 12.3124 9.43768 12.3124 11C12.3124 12.5623 13.5789 13.8289 15.1413 13.8289Z" stroke="#FFBE4D" stroke-width="2" stroke-linecap="round" stroke-linejoin="round"/>
<path d="M21.1384 5.00283C21.9275 5.791 22.5534 6.72697 22.9805 7.75722C23.4076 8.78748 23.6274 9.89181 23.6274 11.0071C23.6274 12.1223 23.4076 13.2267 22.9805 14.2569C22.5534 15.2872 21.9275 16.2231 21.1384 17.0113M9.14408 16.9972C8.35503 16.209 7.72907 15.273 7.30199 14.2428C6.87491 13.2125 6.65508 12.1082 6.65508 10.9929C6.65508 9.87766 6.87491 8.77333 7.30199 7.74308C7.72907 6.71283 8.35503 5.77686 9.14408 4.98868M25.1413 1C27.7929 3.65244 29.2825 7.24945 29.2825 11C29.2825 14.7506 27.7929 18.3476 25.1413 21M5.14125 21C2.48961 18.3476 1 14.7506 1 11C1 7.24945 2.48961 3.65244 5.14125 1" stroke="#4E54C8" stroke-width="2" stroke-linecap="round" stroke-linejoin="round"/>
</svg>
