<svg width="22" height="22" viewBox="0 0 22 22" fill="none" xmlns="http://www.w3.org/2000/svg">
<path fill-rule="evenodd" clip-rule="evenodd" d="M20.9995 12.2309V9.73091L18.0241 9.24454C17.8477 8.54 17.5714 7.87773 17.2068 7.27091L18.9409 4.79955L17.1727 3.03273L14.7327 4.78682C14.1245 4.41864 13.4577 4.13773 12.7482 3.96091L12.23 1H9.73L9.24819 3.95091C8.53819 4.125 7.86773 4.40227 7.25773 4.76864L4.825 3.03045L3.05728 4.79727L4.76864 7.24455C4.39864 7.85682 4.11728 8.52636 3.93864 9.24091L1.00046 9.73V12.23L3.93546 12.7505C4.11273 13.4632 4.39409 14.1327 4.76546 14.7464L3.03091 17.1723L4.79773 18.9409L7.24819 17.2245C7.86 17.5918 8.52864 17.8714 9.23864 18.0464L9.73 21H12.23L12.7555 18.0395C13.4618 17.8605 14.1291 17.5791 14.735 17.2105L17.2023 18.9418L18.9695 17.1732L17.2082 14.7277C17.5727 14.1209 17.8495 13.4577 18.0241 12.7532L20.9995 12.2309Z" stroke="#122443" stroke-linecap="round" stroke-linejoin="round"/>
<path fill-rule="evenodd" clip-rule="evenodd" d="M11 7.81818C9.24272 7.81818 7.81818 9.24272 7.81818 11C7.81818 12.7573 9.24272 14.1818 11 14.1818C12.7573 14.1818 14.1818 12.7573 14.1818 11C14.1818 9.24272 12.7573 7.81818 11 7.81818Z" stroke="#122443" stroke-linecap="round" stroke-linejoin="round"/>
</svg>
