<svg width="26" height="26" viewBox="0 0 26 26" fill="none" xmlns="http://www.w3.org/2000/svg">
<path d="M24.799 19.0071V22.597C24.8003 22.9303 24.7321 23.2602 24.5985 23.5655C24.465 23.8709 24.2692 24.145 24.0236 24.3703C23.7781 24.5956 23.4881 24.7671 23.1724 24.8739C22.8567 24.9807 22.5222 25.0203 22.1903 24.9903C18.508 24.5902 14.9709 23.3319 11.8633 21.3166C8.97197 19.4794 6.52065 17.0281 4.68341 14.1368C2.66105 11.015 1.4025 7.46069 1.00971 3.76187C0.979809 3.43096 1.01914 3.09745 1.12519 2.78257C1.23124 2.46769 1.4017 2.17834 1.6257 1.93295C1.84971 1.68756 2.12236 1.49149 2.42629 1.35725C2.73022 1.223 3.05877 1.15351 3.39103 1.15319H6.98096C7.5617 1.14748 8.1247 1.35313 8.56503 1.73181C9.00536 2.11049 9.29296 2.63637 9.37424 3.21142C9.52577 4.36027 9.80677 5.4883 10.2119 6.57398C10.3729 7.00229 10.4077 7.46777 10.3123 7.91528C10.2169 8.36278 9.99514 8.77355 9.67341 9.0989L8.15367 10.6186C9.85716 13.6145 12.3377 16.095 15.3335 17.7985L16.8533 16.2788C17.1786 15.957 17.5894 15.7353 18.0369 15.6399C18.4844 15.5444 18.9499 15.5793 19.3782 15.7403C20.4639 16.1454 21.5919 16.4264 22.7407 16.5779C23.322 16.6599 23.8529 16.9527 24.2324 17.4006C24.6119 17.8485 24.8135 18.4202 24.799 19.0071Z" stroke="#FECC62" stroke-width="1.5" stroke-linecap="round" stroke-linejoin="round"/>
</svg>
