<svg width="56" height="56" viewBox="0 0 56 56" fill="none" xmlns="http://www.w3.org/2000/svg">
<rect width="56" height="56" rx="14" fill="url(#paint0_linear)"/>
<path d="M17.2707 21.8C18.348 21.8 19.2547 22.1627 19.9907 22.888C20.7267 23.6133 21.0947 24.504 21.0947 25.56C21.0947 26.616 20.7267 27.5067 19.9907 28.232C19.2547 28.9573 18.348 29.32 17.2707 29.32H15.3027V33H13.0947V21.8H17.2707ZM17.2707 27.256C17.74 27.256 18.1294 27.096 18.4387 26.776C18.748 26.4453 18.9027 26.04 18.9027 25.56C18.9027 25.0693 18.748 24.664 18.4387 24.344C18.1294 24.024 17.74 23.864 17.2707 23.864H15.3027V27.256H17.2707ZM28.0437 33.224C26.9344 33.224 26.001 32.9787 25.2437 32.488C24.4864 31.9867 23.953 31.3093 23.6437 30.456L25.5317 29.352C25.969 30.4933 26.8277 31.064 28.1077 31.064C28.7264 31.064 29.1797 30.952 29.4677 30.728C29.7557 30.504 29.8997 30.2213 29.8997 29.88C29.8997 29.4853 29.7237 29.1813 29.3717 28.968C29.0197 28.744 28.3904 28.504 27.4837 28.248C26.9824 28.0987 26.5557 27.9493 26.2037 27.8C25.8624 27.6507 25.5157 27.4533 25.1637 27.208C24.8224 26.952 24.561 26.632 24.3797 26.248C24.1984 25.864 24.1077 25.416 24.1077 24.904C24.1077 23.8907 24.465 23.0853 25.1797 22.488C25.905 21.88 26.7744 21.576 27.7877 21.576C28.6944 21.576 29.489 21.8 30.1717 22.248C30.865 22.6853 31.4037 23.2987 31.7877 24.088L29.9317 25.16C29.4837 24.2 28.769 23.72 27.7877 23.72C27.329 23.72 26.9664 23.8267 26.6997 24.04C26.4437 24.2427 26.3157 24.5093 26.3157 24.84C26.3157 25.192 26.4597 25.48 26.7477 25.704C27.0464 25.9173 27.6117 26.152 28.4437 26.408C28.785 26.5147 29.041 26.6 29.2117 26.664C29.393 26.7173 29.633 26.808 29.9317 26.936C30.241 27.0533 30.4757 27.1653 30.6357 27.272C30.8064 27.3787 30.9984 27.5227 31.2117 27.704C31.425 27.8853 31.585 28.072 31.6917 28.264C31.809 28.456 31.905 28.6907 31.9797 28.968C32.065 29.2347 32.1077 29.528 32.1077 29.848C32.1077 30.8827 31.729 31.704 30.9717 32.312C30.225 32.92 29.249 33.224 28.0437 33.224ZM43.9118 21.8L40.0718 28.632V33H37.8798V28.632L34.0558 21.8H36.5518L38.9838 26.472L41.4158 21.8H43.9118Z" fill="white"/>
<defs>
<linearGradient id="paint0_linear" x1="56" y1="0" x2="0" y2="0" gradientUnits="userSpaceOnUse">
<stop stop-color="#00C6FF"/>
<stop offset="1" stop-color="#0072FF"/>
</linearGradient>
</defs>
</svg>
